<?xml version="1.0" standalone="no"?>
<!DOCTYPE svg PUBLIC "-//W3C//DTD SVG 20010904//EN"
 "http://www.w3.org/TR/2001/REC-SVG-20010904/DTD/svg10.dtd">
<svg version="1.0" xmlns="http://www.w3.org/2000/svg"
 width="199.000000pt" height="35.000000pt" viewBox="0 0 199.000000 35.000000"
 preserveAspectRatio="xMidYMid meet">
<metadata>
Created by potrace 1.16, written by Peter Selinger 2001-2019
</metadata>
<g transform="translate(0.000000,35.000000) scale(0.100000,-0.100000)"
fill="#000000" stroke="none">
<path d="M0 175 l0 -175 995 0 995 0 0 175 0 175 -995 0 -995 0 0 -175z m241
105 c18 -10 18 -13 4 -39 -8 -16 -20 -31 -27 -33 -6 -2 -12 -19 -12 -38 -1
-45 -38 -72 -94 -68 l-41 3 35 78 c19 43 34 80 34 82 0 3 -17 6 -37 7 -21 1
-4 4 37 8 41 4 76 7 78 8 2 1 12 -3 23 -8z m486 -23 c-2 -12 -8 -30 -12 -39
-5 -12 -3 -18 7 -18 8 0 24 20 36 45 15 31 26 43 37 39 19 -8 20 -1 -15 -80
-34 -75 -35 -107 -2 -50 28 47 102 77 102 41 0 -27 15 -15 40 33 21 39 30 47
58 50 17 2 32 1 32 -3 0 -21 -32 -74 -59 -98 -30 -26 -41 -57 -21 -57 10 0 17
8 51 52 15 21 29 28 55 28 19 0 34 -3 34 -8 0 -18 -33 -52 -50 -52 -10 0 -22
-4 -25 -10 -10 -16 38 -12 63 6 12 8 22 10 22 5 0 -25 -46 -40 -120 -39 -78 0
-95 9 -79 40 6 12 6 18 0 18 -6 0 -16 -10 -22 -23 -17 -32 -26 -36 -96 -35
-67 0 -72 5 -48 48 18 32 18 40 0 40 -9 0 -24 -19 -35 -44 -18 -44 -19 -44
-70 -44 -51 -1 -52 0 -47 26 5 25 4 25 -9 7 -8 -10 -14 -22 -14 -27 0 -13
-321 -6 -326 7 -3 7 11 46 30 88 32 70 37 77 64 77 16 0 31 -3 35 -6 10 -11
-30 -80 -57 -98 -25 -16 -36 -56 -17 -56 5 0 24 18 41 40 27 35 37 40 71 40
l40 0 -16 -30 c-17 -34 -18 -40 -6 -40 5 0 18 16 30 35 17 30 26 35 56 35 37
0 47 -13 18 -24 -9 -4 -19 -2 -23 4 -6 10 -30 -30 -30 -50 0 -14 46 -12 57 3
5 6 23 42 38 79 16 37 35 69 43 70 8 2 43 1 79 0 61 -4 65 -5 60 -25z m553 7
c0 -8 -11 -20 -25 -26 -26 -12 -31 -23 -15 -33 5 -3 7 -13 4 -23 -5 -16 -5
-16 6 1 7 11 24 17 50 17 22 0 40 -3 40 -8 0 -18 -33 -52 -50 -52 -10 0 -22
-4 -25 -10 -4 -6 5 -10 19 -10 19 0 32 10 51 40 22 34 30 40 60 40 19 0 35 -4
35 -10 0 -10 -5 -12 -32 -14 -13 -1 -37 -33 -38 -49 0 -5 12 -7 28 -5 19 2 32
13 47 40 11 21 28 38 37 38 15 0 16 -3 2 -35 -22 -54 -16 -55 12 -2 21 40 28
46 39 37 13 -10 12 -16 -1 -41 -8 -16 -11 -29 -6 -29 5 0 17 18 27 39 l17 40
35 -17 c28 -14 33 -20 28 -40 -9 -37 17 -22 37 21 13 26 22 35 34 30 8 -3 13
-11 11 -17 -17 -46 -18 -58 -6 -54 8 3 19 18 24 34 23 65 55 114 75 114 19 0
19 -1 3 -42 -9 -24 -22 -52 -30 -63 -15 -22 -17 -45 -5 -45 5 0 16 19 25 41
14 35 19 40 31 29 14 -11 14 -15 0 -41 -8 -16 -11 -29 -6 -29 5 0 16 18 25 40
15 39 30 50 41 31 4 -5 1 -22 -4 -37 -12 -32 -6 -42 15 -24 10 8 15 9 15 1 0
-6 -12 -18 -27 -28 -16 -10 -38 -28 -51 -41 -13 -14 -31 -22 -44 -20 -27 4
-33 21 -15 40 12 12 -1 14 -92 13 -65 0 -105 4 -105 10 1 6 5 21 9 35 7 22 4
20 -26 -12 l-35 -36 -144 0 c-85 0 -148 4 -151 10 -4 7 -14 6 -28 -2 -12 -6
-36 -10 -54 -8 -24 2 -33 8 -35 25 -3 22 30 65 56 74 7 2 14 18 15 34 2 25 -2
30 -20 29 -13 0 -23 3 -23 7 0 4 32 7 70 7 54 0 70 -3 70 -14z m451 -19 c0
-13 -41 -19 -41 -7 0 11 20 22 33 18 5 -1 8 -6 8 -11z"/>
<path d="M175 240 c-9 -16 -11 -30 -6 -30 15 0 41 30 41 46 0 24 -19 16 -35
-16z"/>
<path d="M137 155 c-9 -19 -13 -35 -8 -35 13 0 41 35 41 53 0 28 -15 19 -33
-18z"/>
<path d="M602 245 c-15 -33 -15 -32 8 -38 19 -5 19 -7 5 -41 -14 -32 -14 -36
0 -36 15 0 76 118 68 133 -2 4 -19 7 -37 7 -25 0 -35 -6 -44 -25z"/>
<path d="M303 243 c-3 -10 -8 -22 -11 -27 -3 -5 0 -6 5 -3 11 7 25 47 17 47
-3 0 -7 -8 -11 -17z"/>
<path d="M962 235 c-17 -37 -14 -45 4 -12 9 16 14 31 11 33 -2 2 -9 -7 -15
-21z"/>
<path d="M350 165 c-6 -15 -13 -32 -16 -36 -3 -5 -1 -9 3 -9 10 0 35 61 28 68
-2 3 -9 -8 -15 -23z"/>
<path d="M1017 183 c-4 -3 -7 -11 -7 -17 0 -6 5 -5 12 2 6 6 9 14 7 17 -3 3
-9 2 -12 -2z"/>
<path d="M815 151 c-8 -17 -12 -31 -7 -31 10 0 35 50 28 57 -2 3 -12 -9 -21
-26z"/>
<path d="M1287 183 c-4 -3 -7 -11 -7 -17 0 -6 5 -5 12 2 6 6 9 14 7 17 -3 3
-9 2 -12 -2z"/>
<path d="M1150 151 c-15 -28 -13 -33 13 -29 14 2 23 11 25 26 4 28 -23 30 -38
3z"/>
</g>
</svg>
